<?xml version="1.0" encoding="UTF-8"?>
<svg version="1.1" xmlns="http://www.w3.org/2000/svg" width="512" height="512">
<path d="M0 0 C0.66241699 0.37108887 1.32483398 0.74217773 2.00732422 1.12451172 C10.8729306 6.1841435 18.67216287 11.89935578 26.12915039 18.88549805 C29.89077356 22.45288012 29.89077356 22.45288012 35 23 C37.16970076 21.16554543 37.16970076 21.16554543 39.3125 18.6875 C60.53875756 -3.31684618 91.89381616 -16.3426916 122.36328125 -17.203125 C158.60301819 -17.68388725 190.51268302 -7.39245173 217 18 C217.88300781 18.80824219 218.76601563 19.61648437 219.67578125 20.44921875 C234.12029751 34.1173678 244.42199446 51.7032464 250.8125 70.4375 C251.09061523 71.24662842 251.36873047 72.05575684 251.65527344 72.8894043 C255.93801281 86.14581284 257.56504993 99.17493765 257.4375 113.0625 C257.43293793 114.12892227 257.43293793 114.12892227 257.42828369 115.21688843 C257.34739472 128.10537832 256.09454073 140.46770289 253 153 C252.68651611 154.27157959 252.68651611 154.27157959 252.36669922 155.56884766 C242.43527382 194.33488342 220.38884118 228.59149756 195 259 C194.1654126 260.00699951 193.3308252 261.01399902 192.47094727 262.05151367 C185.1647836 270.77714402 177.37170928 278.90906226 169.28955078 286.91625977 C167.23271993 288.95462493 165.18421383 291.00108947 163.13671875 293.04882812 C161.80516094 294.37547536 160.47314601 295.70166398 159.140625 297.02734375 C158.54147278 297.62538315 157.94232056 298.22342255 157.32501221 298.83958435 C153.03802296 303.07952381 148.57083774 307.06930801 144 311 C142.9059529 311.95017885 141.81214931 312.90063828 140.71875 313.8515625 C119.78733362 331.92913456 97.82823071 348.38945066 75 364 C74.22817383 364.52819336 73.45634766 365.05638672 72.66113281 365.60058594 C56.57343833 376.53028836 41.44707068 384.03357081 21.484375 380.3515625 C13.57517914 378.11635497 6.8692825 374.44583377 0 370 C-0.56412598 369.63632324 -1.12825195 369.27264648 -1.70947266 368.89794922 C-22.49983314 355.43529197 -43.10073618 341.02019045 -62 325 C-63.00933594 324.15179688 -64.01867187 323.30359375 -65.05859375 322.4296875 C-67.19778732 320.62982512 -69.3302692 318.8224605 -71.45776367 317.00878906 C-73.68147798 315.11543184 -75.91469211 313.2347762 -78.15966797 311.36669922 C-86.79494328 304.13513235 -94.8693169 296.44191191 -102.80639648 288.4543457 C-104.82117835 286.42877518 -106.84653275 284.41421616 -108.87304688 282.40039062 C-116.04382104 275.23689977 -122.73889466 267.98038223 -129 260 C-129.87414288 258.95990901 -130.75427838 257.92477316 -131.64453125 256.8984375 C-167.76859903 214.85132438 -194.76791602 158.87763265 -190.60620117 102.3972168 C-187.31586243 67.391765 -172.7120029 35.37300254 -146 12 C-141.54682835 8.35117567 -136.83663755 5.11578879 -132 2 C-131.3905957 1.60538574 -130.78119141 1.21077148 -130.15332031 0.80419922 C-90.57354763 -24.31413216 -40.14740358 -22.49407633 0 0 Z M57.44140625 48.2421875 C54.04700599 52.07650203 50.92691901 56.11534991 47.92895508 60.2668457 C44.48017389 64.89593745 41.20968229 67.50093355 35.4375 68.3984375 C34.633125 68.39070313 33.82875 68.38296875 33 68.375 C31.7934375 68.38660156 31.7934375 68.38660156 30.5625 68.3984375 C25.41334114 67.59780609 22.19540887 65.5417623 19.03515625 61.48828125 C18.03350766 60.10407931 17.04299235 58.71176755 16.0625 57.3125 C15.00050442 55.85545242 13.93672133 54.3997059 12.87109375 52.9453125 C12.3694873 52.25469727 11.86788086 51.56408203 11.35107422 50.85253906 C-2.35186213 32.06361947 -23.26508963 21.21032189 -45.75 16.75 C-71.93340428 12.93087007 -98.81693034 19.79238039 -120.25 35.25 C-140.08330117 50.99839361 -155.04108743 72.2454775 -158 98 C-159.15915446 114.64605498 -158.53794124 130.91093559 -154 147 C-153.7745752 147.81774902 -153.54915039 148.63549805 -153.31689453 149.47802734 C-142.87157066 186.27421578 -120.90898249 218.44438889 -95.3359375 246.41796875 C-94.05966144 247.82870198 -92.78981704 249.24579877 -91.5534668 250.69165039 C-86.78939322 256.25126975 -81.69794566 261.45523638 -76.51196289 266.6184082 C-75.06475615 268.06025221 -73.62297974 269.50737116 -72.18164062 270.95507812 C-66.95796515 276.18289475 -61.63338441 281.21616077 -56 286 C-54.88191972 286.97293331 -53.7647023 287.94685929 -52.6484375 288.921875 C-45.16214973 295.40584771 -37.52411936 301.6451308 -29.68505859 307.69726562 C-28.07325659 308.94336465 -26.46810175 310.19804745 -24.86328125 311.453125 C-11.80837585 321.60876032 1.59559581 331.19352647 15.4375 340.25 C16.43894043 340.90637451 17.44038086 341.56274902 18.47216797 342.23901367 C19.40818848 342.84592041 20.34420898 343.45282715 21.30859375 344.078125 C22.14189209 344.61856445 22.97519043 345.15900391 23.83374023 345.71582031 C28.06198724 348.22236593 32.19286215 348.61269048 37 348 C43.73323956 345.06013484 49.60171733 341.05023598 55.625 336.875 C57.08522583 335.86977295 57.08522583 335.86977295 58.57495117 334.84423828 C61.38820533 332.9031139 64.19547186 330.95370448 67 329 C68.04293213 328.27490234 68.04293213 328.27490234 69.10693359 327.53515625 C103.03072945 303.87031907 137.28311596 276.76666871 164 245 C164.78246094 244.10667969 165.56492187 243.21335937 166.37109375 242.29296875 C179.15003232 227.62445429 190.31431101 211.86323814 200 195 C200.39525879 194.32324219 200.79051758 193.64648438 201.19775391 192.94921875 C219.81193802 160.82084064 229.85693997 121.78522172 220.11547852 85.1796875 C216.21190035 71.71214977 210.23482741 59.63583755 201 49 C200.00226563 47.78763672 200.00226563 47.78763672 198.984375 46.55078125 C182.99114657 27.76736729 160.72292996 17.95066465 136.62109375 15.26171875 C105.96297049 13.04586734 78.46630882 26.69772391 57.44140625 48.2421875 Z " fill="#000000" transform="translate(223,74)"/>
</svg>
