<?xml version="1.0" encoding="UTF-8"?>
<svg version="1.1" xmlns="http://www.w3.org/2000/svg" width="512" height="512">
<path d="M0 0 C1.1265812 -0.00382555 2.25316241 -0.00765109 3.41388243 -0.01159257 C7.16127995 -0.02185092 10.9085222 -0.01794405 14.65592957 -0.01396179 C17.35401918 -0.01831224 20.05209769 -0.02343265 22.75018311 -0.02944946 C29.30198903 -0.04215651 35.85375389 -0.04399514 42.40557007 -0.0416492 C47.735093 -0.03986131 53.06460353 -0.04162575 58.39412498 -0.04587364 C59.15459218 -0.04646883 59.91505937 -0.04706402 60.69857102 -0.04767724 C62.24380591 -0.04888908 63.7890408 -0.05010322 65.33427569 -0.05131962 C79.80464337 -0.06217989 94.27498771 -0.06003992 108.7453567 -0.05393478 C121.95927552 -0.04876762 135.17312057 -0.06001844 148.3870248 -0.07903299 C161.98149679 -0.09844398 175.57593394 -0.10666164 189.17041987 -0.10290974 C196.79207233 -0.10100256 204.41366203 -0.10343797 212.03530312 -0.11762428 C218.5241917 -0.12958076 225.01297891 -0.13089548 231.501869 -0.11883412 C234.80696559 -0.11297501 238.1118404 -0.11341313 241.41693115 -0.12383652 C266.90754904 -0.19840104 266.90754904 -0.19840104 278.29338074 3.26069641 C279.03072858 3.47795726 279.76807642 3.69521811 280.52776814 3.91906261 C300.45487252 10.34105029 316.61806695 24.84871868 326.29338074 43.26069641 C332.50614208 56.16986666 334.59536908 67.93618062 334.58390808 82.16523743 C334.58990234 83.65783013 334.59670993 85.15041975 334.60426331 86.64300537 C334.62184448 90.67649272 334.62661549 94.70989506 334.62789488 98.74341702 C334.62932212 101.27148828 334.63360265 103.79953833 334.63888931 106.32760429 C334.65736729 115.17063122 334.6655632 124.01359808 334.66398621 132.85664368 C334.66278714 141.06078511 334.68384905 149.26466248 334.71547353 157.46873719 C334.74175589 164.54258333 334.75234844 171.61634391 334.75107539 178.69023842 C334.75056902 182.90156382 334.75606903 187.11265458 334.77743149 191.32393074 C334.79701547 195.2926964 334.79680325 199.26100854 334.78239822 203.22979164 C334.78033334 204.67277451 334.78486942 206.11578729 334.79711914 207.55871964 C334.90120731 220.68766344 332.86876793 233.8578754 326.60588074 245.57319641 C326.09649963 246.55727478 326.09649963 246.55727478 325.576828 247.56123352 C322.24031542 253.77171915 318.06446466 259.07891479 313.29338074 264.26069641 C312.75455261 264.89104797 312.21572449 265.52139954 311.66056824 266.17085266 C299.63387043 279.43648165 280.70284108 287.12683238 263.29338074 289.26069641 C260.50891254 289.35079459 257.75015322 289.39852197 254.9664917 289.39199829 C254.15508931 289.394114 253.34368691 289.39622972 252.50769657 289.39840955 C249.80286202 289.40437601 247.09807456 289.40341178 244.39323425 289.40254211 C242.44774293 289.40557596 240.50225232 289.40909804 238.5567627 289.41307068 C234.37221765 289.42094471 230.18768108 289.42609905 226.00312996 289.42936134 C219.37377463 289.43528986 212.74447248 289.45184913 206.11514282 289.47070312 C203.84154991 289.47704027 201.56795696 289.48336589 199.29436398 289.48968029 C197.58655075 289.49442901 197.58655075 289.49442901 195.84423625 289.49927366 C180.41787006 289.54126825 164.9915288 289.57430211 149.56510925 289.58662415 C139.15023858 289.59502844 128.73549995 289.61760714 118.32069534 289.65597981 C112.81717348 289.67566176 107.31384866 289.68817128 101.81028938 289.68314552 C96.62515664 289.67846817 91.44039641 289.69247174 86.25533867 289.72015762 C84.36408588 289.72701793 82.47279413 289.72725236 80.58154297 289.71995735 C55.1354059 289.63180421 36.43244554 297.15896277 17.19865417 313.64985657 C14.29529895 316.10453849 11.29822768 318.43229302 8.29338074 320.76069641 C3.87603574 324.20322706 -0.48934348 327.70151663 -4.82112122 331.25117493 C-30.85719608 352.56512574 -30.85719608 352.56512574 -48.77302551 351.69819641 C-59.53854332 350.50083991 -67.59571553 345.28492723 -74.70661926 337.26069641 C-80.35171302 329.19817427 -82.00518116 321.65531876 -81.9740448 311.95932007 C-81.97857591 310.92347115 -81.98310703 309.88762224 -81.98777544 308.82038397 C-82.00043362 305.35000329 -81.99879811 301.87977926 -81.99714661 298.40937805 C-82.00313117 295.92054543 -82.00993655 293.43171467 -82.01750183 290.94288635 C-82.03334465 284.88268691 -82.03961086 278.82254902 -82.04072659 272.76233459 C-82.04167825 267.83125046 -82.04579445 262.90017913 -82.05212784 257.96909904 C-82.06974088 243.96945664 -82.07896727 229.96984487 -82.07746689 215.97019131 C-82.07738698 215.21584071 -82.07730707 214.46149011 -82.07722473 213.6842804 C-82.07714297 212.92900129 -82.07706121 212.17372219 -82.07697697 211.39555585 C-82.0761653 199.17458287 -82.09527259 186.95373352 -82.12350146 174.73279626 C-82.15229922 162.1656572 -82.1660378 149.59857825 -82.16431391 137.03140539 C-82.16365211 129.98362252 -82.16905103 122.93596903 -82.19067001 115.88821602 C-82.21089654 109.25205213 -82.21013789 102.6161134 -82.19563675 95.97991943 C-82.19355423 93.55286192 -82.19821606 91.12578712 -82.21035767 88.69875908 C-82.28510986 72.71224527 -81.60446852 58.37168657 -73.95661926 43.94819641 C-73.61300354 43.28360413 -73.26938782 42.61901184 -72.9153595 41.9342804 C-69.82321199 36.13800026 -66.15152012 31.10504342 -61.70661926 26.26069641 C-61.04275208 25.50530579 -60.37888489 24.74991516 -59.69490051 23.97163391 C-44.0845912 7.17828821 -22.52279089 -0.08245668 0 0 Z M-37.11677551 48.29194641 C-47.58325377 61.25289245 -49.86315057 75.07949425 -49.84706116 91.23721313 C-49.85003228 92.1896137 -49.8530034 93.14201427 -49.85606456 94.12327546 C-49.86467578 97.28668598 -49.86625327 100.45005834 -49.86775208 103.61347961 C-49.87238525 105.89252807 -49.87741058 108.17157576 -49.88279724 110.45062256 C-49.89586637 116.61959057 -49.90235427 122.78854772 -49.9068079 128.9575274 C-49.90974468 132.81202034 -49.9138504 136.66651035 -49.91831207 140.52100182 C-49.93040514 151.20402722 -49.94079501 161.88704904 -49.94418716 172.57008076 C-49.94440673 173.25195755 -49.9446263 173.93383434 -49.94485252 174.63637407 C-49.94507079 175.3198037 -49.94528907 176.00323334 -49.94551396 176.70737296 C-49.94595742 178.09209081 -49.94640398 179.47680865 -49.94685364 180.86152649 C-49.94707507 181.54838255 -49.9472965 182.23523861 -49.94752464 182.94290849 C-49.95148003 194.09368312 -49.96896403 205.24439271 -49.99221316 216.39514218 C-50.01591802 227.85720527 -50.02813029 239.31922101 -50.02955508 250.78131169 C-50.03060432 257.21166098 -50.03653881 263.64191813 -50.05437469 270.07224464 C-50.07080573 276.11253128 -50.0730351 282.15265596 -50.06423569 288.19295692 C-50.06346292 290.41136101 -50.06783944 292.62977364 -50.07769394 294.84815598 C-50.09034129 297.87199817 -50.08457609 300.8952603 -50.07411194 303.9190979 C-50.08216834 304.8004125 -50.09022475 305.6817271 -50.09852529 306.5897482 C-50.06004268 311.33119747 -49.71450477 314.35857294 -46.70661926 318.26069641 C-41.37565898 317.86404758 -38.52174893 315.89039619 -34.70661926 312.38569641 C-33.55883824 311.37305548 -32.40903278 310.36270534 -31.25740051 309.35444641 C-30.37689026 308.57907532 -30.37689026 308.57907532 -29.47859192 307.78804016 C-26.69393421 305.38781715 -23.80029533 303.13599912 -20.89411926 300.88569641 C-16.45756308 297.43966474 -12.07589825 293.93926529 -7.73908997 290.36836243 C19.04666041 268.35739326 43.69600313 256.93688209 78.82463074 256.98945618 C80.77735103 256.98506181 82.73006945 256.97975708 84.68278503 256.97361755 C88.86671593 256.96217319 93.05059656 256.95666226 97.23454285 256.95573616 C103.85901942 256.95378501 110.48339288 256.93567558 117.10783386 256.91497803 C133.55734928 256.86593689 150.00689248 256.83491764 166.45646667 256.81367493 C179.25295136 256.79712738 192.04934681 256.7742571 204.84577179 256.73065418 C211.4224088 256.70895272 217.99887594 256.70081288 224.57554626 256.70304692 C228.67552083 256.70137327 232.77538554 256.68728302 236.87532043 256.66983414 C238.76664934 256.66426332 240.65800129 256.66372275 242.54933167 256.66877174 C259.87591278 256.71015447 275.20461167 254.64520446 288.44963074 242.29585266 C300.8758485 228.57962501 302.44573076 213.35261892 302.43864441 195.68940735 C302.44200302 194.47173172 302.44536163 193.25405609 302.44882202 191.9994812 C302.45664607 188.68723625 302.45999676 185.37505402 302.46063781 182.06280422 C302.46135289 179.98518295 302.46349581 177.90756809 302.46613503 175.82994843 C302.47536239 168.55832508 302.47947323 161.28671995 302.47868347 154.01509094 C302.4780835 147.27479755 302.48862617 140.5345844 302.50442713 133.79431129 C302.51757344 127.97567619 302.52286441 122.15706709 302.52222806 116.33841729 C302.52197514 112.87729831 302.52471124 109.41625075 302.53540611 105.95514679 C302.54703582 102.08658822 302.54229721 98.2181367 302.53630066 94.3495636 C302.54192017 93.22806412 302.54753967 92.10656464 302.55332947 90.95108032 C302.48376569 73.14934977 299.43427371 58.51376507 286.66447449 45.37788391 C271.69516503 32.01154828 254.13414449 32.67789871 235.23869324 32.74311829 C232.59778432 32.7376921 229.95692031 32.73071006 227.31602478 32.72187805 C220.91183293 32.70417314 214.50782952 32.70789671 208.10363054 32.71952862 C202.89474992 32.7285945 197.68592179 32.72977337 192.47703552 32.72543335 C191.73320275 32.72482042 190.98936999 32.72420749 190.22299683 32.72357598 C188.71150127 32.72229697 187.20000571 32.72100011 185.68851018 32.71968561 C171.54432576 32.70830334 157.40024536 32.72135646 143.256078 32.74288708 C131.14280916 32.76075594 119.02969369 32.75765117 106.91642761 32.73921204 C92.819831 32.7177636 78.72332536 32.70940176 64.62671471 32.72166109 C63.1210518 32.72293517 61.61538888 32.72419266 60.10972595 32.72543335 C59.36908028 32.72605045 58.6284346 32.72666755 57.86534512 32.72730336 C52.66801512 32.73074437 47.47074324 32.724955 42.27342224 32.71551514 C35.93200257 32.70424947 29.59078072 32.70743042 23.24938345 32.72863811 C20.01927892 32.73908772 16.7895679 32.74119057 13.55945587 32.7300415 C-5.50579063 32.67032383 -23.20565395 33.36613128 -37.11677551 48.29194641 Z " fill="#221E1F" transform="translate(129.7066192626953,68.73930358886719)"/>
<path d="M0 0 C3.76730563 1.87553362 6.34227657 4.52021488 8.21875 8.28125 C9.89427828 13.53722263 9.49674746 18.57277203 7.6875 23.71484375 C4.35805832 28.53679377 0.61369062 31.12588997 -5.125 32.33984375 C-10.62490131 32.70786689 -14.2787521 31.66641644 -18.5625 28.15234375 C-21.68603156 25.08481175 -23.50271327 22.78474899 -24.125 18.33984375 C-24.17954037 12.29677028 -23.16248969 8.03206149 -19.125 3.33984375 C-13.68975513 -1.69770028 -6.94401795 -2.15724087 0 0 Z " fill="#221E1F" transform="translate(349.125,198.66015625)"/>
<path d="M0 0 C4.45146251 2.18526342 7.18885145 4.9394521 10 9 C11.79910157 14.39730471 11.69468904 19.10048284 9.375 24.25 C7.21904387 28.07362952 5.03432693 30.0970156 1 32 C-5.08583134 33.59919656 -9.44313588 33.20588314 -15 30 C-18.71639433 26.77912492 -21.60264013 23.83828477 -22.30078125 18.8515625 C-22.32731997 13.80920569 -21.92606094 10.29155604 -19 6 C-12.98890156 0.08507914 -8.27150562 -0.84235984 0 0 Z " fill="#221E1F" transform="translate(262,198)"/>
<path d="M0 0 C4.69013713 3.56450422 6.67560538 6.51750224 8.0625 12.25 C8.40789916 16.76609397 7.43243278 20.4848516 5.125 24.375 C2.13615132 27.75779435 -1.46252742 30.34884359 -5.875 31.375 C-11.89773919 31.46455746 -16.21151935 30.38776242 -20.875 26.375 C-24.28427346 22.69657337 -25.1739014 19.83089922 -25.375 14.9375 C-25.14866555 9.56388198 -24.23161389 6.59228412 -20.875 2.375 C-14.67399163 -2.46178653 -7.21608483 -3.68546822 0 0 Z " fill="#221E1F" transform="translate(179.875,199.625)"/>
</svg>
